# xmcd
#
# Track frame offsets:
#	150
#	15841
#	34746
#	51840
#	65266
#	79401
#	96277
#	111006
#	129407
#	146444
#	163415
#	181719
#	194097
#	210003
#	227183
#
# Disc length: 3259 seconds
#
# Revision: 1
# Processed by: cddbd v1.5.2PL0 Copyright (c) Steve Scherf et al.
# Submitted via: audiograbber 1.83.01
#
DISCID=c50cb90f
DTITLE=Various Artist - CB60030
DYEAR=1900
DGENRE=Country
TTITLE0=RHETT ADKINS - THE REST OF MINE
TTITLE1=CLINT BLACK - SOMEHITNG THAT WE DO
TTITLE2=MARTINA MCBRIDE - A BROKEN WING
TTITLE3=RIVER ROAD - NIC A JACK
TTITLE4=THE PAYBON BROTHER - THE WAY SHE'S LOOKING
TTITLE5=THE KINLEYS - PLEASE
TTITLE6=GEORGE STRAIT - TODAY MY WORLD SLIPPED AWAY
TTITLE7=LONESTAR - YOU WALKED IN
TTITLE8=PATTY LOVELESS AND GEORGE JONES - YOU DON'T SEEM TO MISS ME
TTITLE9=MICHAEL PETERSON - FROM HERE TO ETERNITY
TTITLE10=TRACY LAWRENCE - THE COAST IS CLEAR
TTITLE11=LEEANN RIMES - COWBOY SWEETHEART
TTITLE12=COLIN RAY - OPEN ARMS
TTITLE13=JOHN MICHAEL MONTGOMERY - ANGEL IN MY EYES
TTITLE14=LILA MCCANN - I WANT TO FALL IN LOVE
EXTD=
EXTT0=
EXTT1=
EXTT2=
EXTT3=
EXTT4=
EXTT5=
EXTT6=
EXTT7=
EXTT8=
EXTT9=
EXTT10=
EXTT11=
EXTT12=
EXTT13=
EXTT14=
PLAYORDER=
